<svg width="1440" height="1630" viewBox="0 0 1440 1630" fill="none" xmlns="http://www.w3.org/2000/svg">
<rect width="1440" height="1024" fill="#1B838B"/>
<path d="M846.297 1191.94C891.799 1033.37 1013.53 889.395 1169.92 812.333C1254.23 770.792 1343.62 741.783 1430.36 706.506C1566.55 651.111 1700.22 585.18 1826.03 508.334C1908.45 457.991 1984.78 399.438 2056.8 335.898C2124.93 275.791 2188.69 209.365 2237.2 134.203C2275.69 74.5809 2302.1 9.49152 2321.56 -56.343C2329.94 -84.6916 2335.93 -112.256 2337.82 -141" stroke="white" stroke-opacity="0.11" stroke-width="2" stroke-linecap="round"/>
<path d="M-420 -66.7027C-261.436 -21.2013 -117.46 100.529 -40.3982 256.92C1.143 341.226 30.1525 430.624 65.429 517.357C120.824 653.555 186.755 787.22 263.601 913.032C313.944 995.453 372.496 1071.78 436.037 1143.8C496.144 1211.93 562.57 1275.69 637.731 1324.2C697.354 1362.69 762.443 1389.1 828.278 1408.56C856.626 1416.94 884.191 1422.93 912.935 1424.82" stroke="white" stroke-opacity="0.11" stroke-width="2" stroke-linecap="round"/>
</svg>
