<svg width="106" height="142" viewBox="0 0 106 142" fill="none" xmlns="http://www.w3.org/2000/svg">
<path d="M15.8831 0L12.4303 12.5737L0 9.30343L8.97743 18.7833L0 28.0867L12.4303 24.8165L15.8831 37.5666L19.336 24.811L31.7663 28.0867L22.7889 18.7888L31.7663 9.30894L19.336 12.5847L15.8831 0ZM63.3613 39.2928C71.4935 42.8699 78.4046 48.7359 83.2488 56.173C88.093 63.6101 90.6602 72.2956 90.6361 81.1665C90.6361 106.43 70.2781 126.834 45.0584 126.834C36.1544 126.833 27.4439 124.241 19.9927 119.375C12.5415 114.509 6.67285 107.58 3.10481 99.4369C5.27105 111.387 11.5758 122.197 20.9169 129.977C30.2581 137.757 42.0414 142.013 54.2071 142C61.0115 142.01 67.751 140.68 74.0394 138.085C80.3278 135.491 86.0414 131.683 90.8529 126.88C95.6643 122.077 99.479 116.373 102.078 110.096C104.677 103.819 106.01 97.0913 106 90.2989C106.006 78.1565 101.741 66.3975 93.9481 57.0742C86.1552 47.751 75.3297 41.4557 63.3613 39.2873V39.2928Z" fill="white"/>
</svg>
